<svg aria-hidden="true" focusable="false" data-prefix="fab" data-icon="youtube" class="svg-inline--fa fa-youtube fa-w-18" role="img" xmlns="http://www.w3.org/2000/svg" viewBox="0 0 576 512"><path fill="currentColor" d="M549.655 124.083c-6.281-23.65-24.787-42.276-48.284-48.597C458.781 64 288 64 288 64S117.22 64 74.629 75.486c-23.497 6.322-42.003 24.947-48.284 48.597-11.412 42.867-11.412 132.305-11.412 132.305s0 89.438 11.412 132.305c6.281 23.65 24.787 41.5 48.284 47.821C117.22 448 288 448 288 448s170.78 0 213.371-11.486c23.497-6.321 42.003-24.171 48.284-47.821 11.412-42.867 11.412-132.305 11.412-132.305s0-89.438-11.412-132.305zm-317.51 213.508V175.185l142.739 81.205-142.739 81.201z"></path></svg>


<svg width="159" height="206" viewBox="0 0 159 206" fill="none" xmlns="http://www.w3.org/2000/svg">
<path d="M75.525 72.7437C66.5813 50.8562 57.1406 30.2562 47.2031 9.65625C22.8562 23.175 4.96875 52.7875 0.99375 88.1937C24.8438 88.8375 49.6875 83.6875 75.525 72.7437Z" fill="black"/>
<path d="M84.9656 68.2375C102.853 59.225 120.244 47.6375 138.131 33.475C123.225 12.875 102.853 0 79.5 0C71.55 0 63.6 1.2875 56.6438 4.50625C66.5813 25.1062 76.0219 46.35 84.9656 68.2375Z" fill="black"/>
<path d="M98.8781 106.219C113.287 101.069 128.691 97.85 144.094 97.85C149.063 97.85 153.534 97.85 158.503 98.4938C158.006 77.8938 152.541 58.5813 144.094 43.1313C125.709 58.5813 107.325 70.8125 89.4375 79.825C92.4188 88.8375 95.8969 97.2063 98.8781 106.219Z" fill="black"/>
<path d="M89.4375 110.081C86.4562 101.069 82.9781 92.7 79.5 83.6875C54.6562 94.6313 30.3094 100.425 6.95625 100.425C4.47187 100.425 2.48438 100.425 0 100.425C0 101.069 0 101.712 0 103C0 128.75 7.45313 151.925 19.3781 169.95C39.2531 142.269 63.1031 122.313 89.4375 110.081Z" fill="black"/>
<path d="M144.591 111.369C130.678 111.369 116.766 113.944 103.35 118.45C111.3 140.981 117.759 164.8 124.219 188.619C143.597 171.881 156.516 144.2 159 112.656C154.031 111.369 149.063 111.369 144.591 111.369Z" fill="black"/>
<path d="M93.9094 122.312C68.5687 133.256 45.7125 152.569 26.3344 179.606C40.2469 195.7 59.1281 206 79.5 206C92.4187 206 104.344 202.137 115.275 195.056C108.816 169.95 101.859 146.131 93.9094 122.312Z" fill="black"/>
</svg>


